<?xml version="1.0" encoding="UTF-8"?>
<svg id="Layer_1" data-name="Layer 1" xmlns="http://www.w3.org/2000/svg" viewBox="0 0 404.54 144.35">
  <defs>
    <style>
      .cls-1 {
        fill: #fff;
      }
    </style>
  </defs>
  <path class="cls-1" d="M65.51,27.84c-.07.02-.34.65-1.19.95-1.06.37-8.4,3.1-8.71,2.76-.66-3.89,1.69-4.46,4.94-4.95l.62,2.48v-12.06l28.46-8.35-3.09,37.74c-17.37-2.85-38.26,21.23-16.97,31.54l62.11-19.48c-12.41-8.47-28.8-12.57-43.29-7.12l2.79-42.7,30.54,7.52c.43.66.42,13.44.68,15.71.25,2.14,1.51,3.62,2.79,5.25,2.51,3.18,17.18,16.87,20.47,17.32,35.33-9.54,70.81-20.82,107.61-23.51,39.82-2.9,85.03,7.95,116.55,33.16,17.46,13.96,9.49,24.81-11.2,21.72-17.79-2.66-35-8.11-53.46-10.26-50.69-5.91-101.52.13-151.77,6.76l-.07,6.12c-4.32.46-5.52,2.34-4.93-3.39l1.87-2.14c-6.28,1.06-13.24.94-19.45,1.89-4.22.65-2.56,4.11-2.82,7.39h-4.34s0-6.19,0-6.19l-19.8,1.24v6.19s-4.33,0-4.33,0l-.08-5.18-1.46-1.02-15.16-1.24v4.34s-3.09,0-3.09,0l-.6-5.28c-10.35-2.45-22.27-6.37-27.56-16.37-8.03-15.2,3.09-30.46,16.6-37.24,5.25-2.64,11.01-3.81,16.5-5.77l-3.71-.3c.97-10.62-4.94-10.29-4.41-.09l-4.25.71c-.14-1.23.56-6.7-.93-6.79-3.38,1.25-.87,5.27-1.62,7.96-.39.45-3.53.43-4.26.68v-6.49c-3.67-1.43-2.25,4.11-2.47,6.49h2.47ZM100.22,28.39c-.5-1.71.86-7.29-1.06-7.92l-2.15.21-.57,7.16c-1.51.33-2.93-.24-4.27-.38-.97-.1-2.01-.8-.69.7l29.71,4.62-4.25-1.93c-.78-1.2,1.53-10.32-3.07-6.31l-.1,5.78c-6.69.98-3.39-3.35-4.46-6.99-.47-1.6-2.89-2.55-3.49-.65l-.1,6.4-5.5-.69ZM257.3,60.63v-17.63c0-3.2-11.15-2.7-13.29-.92-2.87,5.12.61,13.32-.32,18.24-.13.7-.21,1.25-1.01,1.46-35.56,1.45-70.77,7.41-105.7,13.71l-.94-9.29-5.41.77c-2.18,1.88.69,9.02-.51,9.82-15.04,2.66-30.14,6.23-45.42,6.74.35,1.3,1.69,1.29,2.78,1.29,5.87,0,14.28-1.28,20.34-1.99,71.85-8.46,140.51-26.7,213.84-13.86,10.64,1.86,20.99,4.91,31.53,7.12l-6.03-2.93c-28.67-10.7-59.41-13.24-89.86-12.53ZM342.05,49.5c-12.65-7-25.91-9.57-40.21-6.19-.24,1.13.31,1.22,1.07,1.7,2.62,1.66,17.88,7.14,20.95,7.51,5.22.62,12.23-.29,17.28-1.77.9-.26,1.08.35.9-1.25ZM307.41,56.29c-2.11-2.08-6.09-3.27-8.96-4.34-11.84-4.39-24.13-6.87-36.82-6.18.38,1.89-.95,8.55,1.02,9.2l44.77,1.32ZM219.64,50.82c-.14,1.91-.66,7.09,1.56,7.85,1.31.45,14.41-.93,15.42-1.69,1.54-1.16.27-8.11-1.41-8.65l-15.58,2.49ZM215.76,59.3c.21-1.97.21-6.93-2.08-7.36-1.6-.3-14.96,2.02-17.16,2.66-3.87,1.12-2.7,6.79-.16,7.27l19.4-2.57ZM172.05,58.9c-1.12.8-.35,6.15,1.53,6.58.78.18,14.66-2.05,15.85-2.5,2.17-.81.73-6.91-.46-7.13l-16.92,3.04ZM167.53,60.06l-14.14,2.45c.17,2.29-1.18,6.29,2.04,6.12,1.45-.07,12.34-1.98,12.69-2.53l-.59-6.05ZM149.6,63.78c-4.76.73-13.14.36-9.82,7.35l9.88-2.13c1.4-1.37.08-3.62-.07-5.22ZM126.07,73.56c.13-1.08.48-4.51-.83-4.74l-12.74,3.35c0,1.09-.34,3.49,1.03,3.88l12.54-2.49ZM109.43,73l-4.88.69c-.7,5.15.94,4.28,4.8,2.95l.08-3.64ZM100.75,74.86l-4.06,1.2.41,3.1,4.03-1.19-.38-3.12Z"/>
  <path class="cls-1" d="M54.37,28.46c-.19,1.16.39,3.3-.13,4.2-.23.4-6.75,3.82-7.99,4.68-4.87,3.39-10.49,7.74-13.54,12.76-1.02.17-.57-.83-.61-1.53-.1-1.95.08-3.94,0-5.88-.57-.08-.79-.07-1.25.29-1.9,1.5-6.27,7.93-7.67,10.27-15.54,25.86-5.44,52.33,23.88,59.54,30.41,7.48,76.76-10.5,107.28-18.09,81.41-20.27,158.63-24.99,237.01,9.74,4.37,1.94,9.53,3.99,13.19,6.91-20.46-8-42.12-13.17-64.04-15.45-57.38-5.97-111.4,4.35-166.11,20.1-38.15,10.98-96.46,35.92-135,26.11-57.75-14.7-45.58-77.35-4.77-104.63.6-.4,3.97-2.57,4.27-2.22.21,1.75-.83,4.64,1.23,5.56.26-2.17-.76-5.2.9-6.84,1.13-1.11,12.68-6.23,13.33-5.53Z"/>
  <path class="cls-1" d="M31.47,95.27c.52-.78.11-4.26,1.54-3.7.43.17,7.24,5.14,7.44,5.56.75,1.54.12,3.87.31,5.57,2.23.16,1.92-2.25,1.86-3.71.35-.38,9.33,3.26,9.61,3.69.86,1.29-.53,3.85,1.21,4.96l1.85-4.3,23.21,5.86c-16.4,2.14-35.77.86-48.55-10.85-14.89-13.63-11.27-38.77.6-53.18,0,1.46.93,4.7.75,5.79-.13.8-3.72,5.67-4.48,7.19-4.34,8.7-5.21,18.67.05,27.2.58.94,2.16,1.82,2.45,2.53.46,1.1-.58,6.3,2.14,7.41Z"/>
  <path class="cls-1" d="M96.95,1.34c.48.58.13,4.94,3.21,3.23v-2.11c.48-.04.97.02,1.46.07.68.07,3.94.42,4.08.57.25.26-.55,3.05.94,3.7,2.98.46,0-2.02,3.07-1.85,2.6.14,3.73.38,3.7,3.11l2.8.58.33-1.85,4.89,1.18.37,6.87-31.76-7.19-28.24,7.81-.03-6.39,4.35-1.65v1.86s1.85,0,1.85,0c-.57-3.29,2.15-3.57,4.63-4.34.93-.01-.63,2.84,1.23,2.47,2.34-.46,1.08-2.45,2.16-3.4.78-.69,3.13-.54,4.05-1.53l.3,2.47,2.12-.05c1.68-.57-.06-2.43.36-3.03.11-.15,3.05-1.03,3.55-1.12.68-.12,1.34-.2,2.02-.14v2.48s2.47,0,2.47,0V0s6.08,1.34,6.08,1.34Z"/>
  <path class="cls-1" d="M63.65,92.19l-17.64,6.12-7.1-3.97c-.28-1.33.55-.82,1.37-1.09,5.26-1.7,11.02-2.51,16.33-4.13l7.04,3.07Z"/>
  <path class="cls-1" d="M42.53,62.57l.09,5.48-17.94.61c.47-1.64,1.25-6.81,2.89-7.35l14.96,1.25Z"/>
  <polygon class="cls-1" points="43.18 69.35 44.47 74.23 26.07 75.97 24.77 75.07 24.68 69.91 43.18 69.35"/>
  <polygon class="cls-1" points="56.22 87.86 37.35 93.15 32.1 88.77 50.98 84.41 56.22 87.86"/>
  <path class="cls-1" d="M27.15,82.91l19.51-3.47,3.36,3.78c-.08,1.2-16.45,3.7-18.78,4.49l-4.09-4.79Z"/>
  <path class="cls-1" d="M92.73,100.85c-.06.91-.95.95-1.53,1.24-7.89,4.04-15.69,6.22-24.45,3.69.17-1.07,1.23-1.08,1.99-1.4,2.31-.98,12.24-5.05,13.92-5.27,2.28-.3,7.31,2.1,10.07,1.73Z"/>
  <path class="cls-1" d="M71.7,95.28c.29,1.61-.23.96-.88,1.29-1.75.9-13.53,5.22-15.06,5.4-2.83.33-5.38-2.03-8.19-2.37-.16-1.64-.03-1,.93-1.22,4.52-1.02,12.19-4.45,15.63-4.85,2.68-.31,4.94,1.78,7.57,1.75Z"/>
  <polygon class="cls-1" points="45 74.95 46.33 78.56 26.51 81.39 25.29 76.71 45 74.95"/>
  <path class="cls-1" d="M80.36,98.37c.29,1.61-.23.96-.88,1.29-2.95,1.51-13.69,5.09-16.67,4.84-1.72-.14-3.52-1.23-5.34-1.19-.25-1.4.08-.98.79-1.38,1.21-.67,13.31-5.11,14.53-5.31,2.46-.41,5.06,1.84,7.57,1.75Z"/>
  <polygon class="cls-1" points="43.24 56.3 42.24 61.28 27.15 60.62 30.31 54.5 43.24 56.3"/>
  <path class="cls-1" d="M106.96,102.08l-17.3,5.27-9.3.9c-.3-1.61.3-1.09,1.23-1.52,2.32-1.07,10.83-4.73,12.82-5.14,3.58-.73,8.65,1.28,12.54.49Z"/>
  <path class="cls-1" d="M43.82,55.65l-12.96-2.13c2.27-2.15,1.54-3.59,5.16-3.34,1.01.07,7.41,1.18,7.84,1.47,1.27.83-.07,2.76-.05,4.01Z"/>
  <path class="cls-1" d="M45.62,50.63c-.94.6-7.21-.87-8.87-1.16-.61-.1-2.1.42-1.55-.9,1.96-4.68,7.61-1.77,11.15-1.26l-.73,3.32Z"/>
  <path class="cls-1" d="M76.02,26.61l-14.17,5.93c-1.9,1.03-7.17,6.12-7.93,6.34-1.76.5-3.86-.89-5.73-.52.57-3.03,4.91-3.29,7.42-3.1l-1.85-.62c-.19-.14.32-.74.61-.93,2.05-1.31,11.57-4.59,14.37-5.43,2.32-.69,4.91-1.13,7.29-1.67Z"/>
  <path class="cls-1" d="M389.69,100.84l-35.26-14.84c7.69,2.01,15.43,4.7,22.69,7.93,4.15,1.85,9.03,4.2,12.58,6.91Z"/>
  <path class="cls-1" d="M49.42,42.69c-1,6.31-6.31,2.49-10.51,2.47l3.52-3.61,6.99,1.14Z"/>
  <path class="cls-1" d="M52.51,39.6c-.87,4.66-6.18,1.41-9.27,1.23,2.55-3.17,5.89-1.91,9.27-1.23Z"/>
  <path class="cls-1" d="M245.54,61.25v-14.54c0-.21-.58-.61-.38-1.55.53-2.45,8.22-3.47,9.61-1.5.93,1.32.96,13.17.7,15.45-.11.9-.08,1.59-.96,2.13h-8.97ZM252.97,53.21l-.27-6.23c-2.34-1.3-5.61-.77-5.96,2.17-.64,5.32,2.11,3.98,6.23,4.05Z"/>
  <path class="cls-1" d="M135.42,67.43v9.28l-4.33.62v-9.28l4.33-.62ZM132.33,73c1.65,1.19,4.71-6.13-.57-3.64l.57,3.64Z"/>
</svg>